<?xml version="1.0" standalone="no"?>
<!DOCTYPE svg PUBLIC "-//W3C//DTD SVG 20010904//EN"
 "http://www.w3.org/TR/2001/REC-SVG-20010904/DTD/svg10.dtd">
<svg version="1.0" xmlns="http://www.w3.org/2000/svg"
 width="512.000000pt" height="512.000000pt" viewBox="0 0 512.000000 512.000000"
 preserveAspectRatio="xMidYMid meet">
<metadata>
Created by potrace 1.14, written by Peter Selinger 2001-2017
</metadata>
<g transform="translate(0.000000,512.000000) scale(0.100000,-0.100000)"
fill="#000000" stroke="none">
<path d="M2488 4695 c-2 -1 -43 -5 -93 -9 -120 -8 -189 -19 -330 -50 -297 -65
-664 -251 -893 -455 -113 -100 -215 -207 -287 -301 -28 -36 -52 -67 -55 -70
-24 -22 -134 -209 -185 -315 -106 -218 -168 -421 -199 -655 -14 -103 -17 -160
-17 -291 0 -897 577 -1704 1431 -2001 83 -29 229 -69 300 -82 19 -3 45 -8 57
-10 140 -28 628 -28 673 -1 3 2 28 6 57 10 29 3 92 17 140 31 48 13 95 26 104
28 103 26 344 133 454 201 198 123 270 180 431 340 143 142 274 315 345 455
12 25 31 57 41 72 11 16 16 28 12 28 -3 0 -1 6 5 13 21 26 67 152 66 182 -3
71 -7 84 -35 126 -62 94 -166 118 -296 67 -38 -15 -81 -29 -95 -32 -13 -3 -51
-12 -84 -21 -89 -22 -156 -29 -295 -29 -118 0 -254 9 -270 19 -4 2 -22 7 -41
10 -79 14 -288 93 -364 138 -218 129 -351 250 -477 436 -109 160 -190 356
-219 531 -18 107 -20 131 -21 225 -3 373 129 711 380 975 110 116 127 147 126
225 -1 89 -47 156 -128 190 -31 13 -227 30 -238 20z"/>
</g>
</svg>
