<?xml version="1.0" standalone="no"?>
<!DOCTYPE svg PUBLIC "-//W3C//DTD SVG 20010904//EN"
 "http://www.w3.org/TR/2001/REC-SVG-20010904/DTD/svg10.dtd">
<svg version="1.0" xmlns="http://www.w3.org/2000/svg"
 width="512.000000pt" height="512.000000pt" viewBox="0 0 512.000000 512.000000"
 preserveAspectRatio="xMidYMid meet">
<metadata>
Created by potrace 1.14, written by Peter Selinger 2001-2017
</metadata>
<g transform="translate(0.000000,512.000000) scale(0.100000,-0.100000)"
fill="#000000" stroke="none">
<path d="M2498 4896 c-82 -29 -132 -86 -146 -166 -4 -25 -7 -148 -6 -275 1
-192 4 -237 18 -270 79 -185 351 -166 400 29 7 25 11 140 10 282 -1 256 -6
288 -57 342 -52 57 -150 82 -219 58z"/>
<path d="M960 4260 c-86 -45 -136 -142 -117 -228 5 -26 17 -58 25 -72 9 -14
95 -104 192 -200 122 -122 187 -180 216 -191 50 -20 119 -17 167 6 46 21 100
83 114 128 13 44 7 120 -13 160 -28 53 -355 374 -405 397 -56 25 -132 25 -179
0z"/>
<path d="M3975 4258 c-47 -24 -375 -350 -399 -396 -9 -17 -18 -50 -20 -74 -17
-165 160 -285 309 -210 16 8 111 96 210 196 191 192 205 212 205 302 0 45 -27
108 -60 143 -58 60 -171 78 -245 39z"/>
<path d="M2499 3636 c-2 -2 -32 -6 -66 -9 -130 -13 -281 -65 -408 -141 -592
-355 -698 -1164 -217 -1659 132 -136 336 -254 502 -292 170 -38 374 -38 515 0
114 31 134 39 219 81 143 72 271 174 354 284 15 19 29 37 32 40 13 11 88 139
109 185 66 141 93 265 95 435 9 516 -363 967 -873 1060 -61 11 -254 23 -262
16z"/>
<path d="M404 2772 c-77 -13 -133 -51 -164 -113 -41 -79 -31 -171 26 -238 59
-69 90 -75 373 -75 264 0 297 5 352 51 93 79 97 237 7 320 -53 50 -86 56 -339
57 -129 1 -244 0 -255 -2z"/>
<path d="M4197 2759 c-180 -61 -193 -306 -20 -390 45 -22 57 -23 298 -23 174
0 261 4 288 13 138 46 186 218 94 335 -58 72 -88 79 -367 80 -200 1 -254 -2
-293 -15z"/>
<path d="M1303 1560 c-18 -4 -45 -15 -60 -25 -54 -35 -372 -364 -388 -401 -72
-173 107 -351 280 -278 24 10 104 82 220 197 148 148 184 190 197 227 55 163
-82 316 -249 280z"/>
<path d="M3693 1551 c-87 -34 -144 -120 -137 -206 6 -81 30 -114 218 -300 192
-191 213 -205 302 -205 46 0 112 29 144 61 56 59 76 162 45 235 -20 48 -362
390 -411 410 -54 23 -113 25 -161 5z"/>
<path d="M2498 1055 c-81 -28 -132 -85 -146 -165 -4 -25 -7 -148 -6 -275 1
-246 7 -280 57 -333 81 -87 234 -86 315 1 51 54 58 101 56 367 -1 263 -6 294
-57 348 -52 56 -149 81 -219 57z"/>
</g>
</svg>
